<svg width="340" height="80" viewBox="0 0 340 80" fill="none" xmlns="http://www.w3.org/2000/svg">
  <defs>
    <linearGradient id="grad" x1="0%" y1="0%" x2="100%" y2="100%">
      <stop offset="0%" stop-color="#6F26EB" />
      <stop offset="100%" stop-color="#22D3EE" />
    </linearGradient>
    <filter id="shadow" x="-20%" y="-20%" width="140%" height="140%">
      <feDropShadow dx="0" dy="10" stdDeviation="10" flood-color="#000" flood-opacity="0.15" />
    </filter>
  </defs>

  <g filter="url(#shadow)">
    <rect x="10" y="10" width="60" height="60" rx="18" fill="url(#grad)" />
    <path d="M27 26C33 22 40 22 47 26L38 40L47 54C40 58 33 58 27 54L36 40L27 26Z" fill="white" />
    <path d="M39 34L47 40L39 46" stroke="#6F26EB" stroke-width="4" stroke-linecap="round" stroke-linejoin="round" />
    <path d="M28 28L36 34" stroke="#6F26EB" stroke-width="4" stroke-linecap="round" />
    <path d="M28 52L36 46" stroke="#6F26EB" stroke-width="4" stroke-linecap="round" />
  </g>

  <text x="84" y="32" font-family="Poppins, sans-serif" font-weight="700" font-size="32" fill="#F8FAFC">Skill</text>
  <text x="188" y="32" font-family="Poppins, sans-serif" font-weight="700" font-size="32" fill="#22D3EE">Mart</text>
  <path d="M188 42L200 54L232 22" stroke="#22D3EE" stroke-width="6" stroke-linecap="round" stroke-linejoin="round" />
  <text x="84" y="62" font-family="Poppins, sans-serif" font-weight="500" font-size="12" fill="#CBD5E1">Learn, create, grow</text>
</svg>
